<?xml version="1.0" standalone="no"?>
<!DOCTYPE svg PUBLIC "-//W3C//DTD SVG 20010904//EN"
 "http://www.w3.org/TR/2001/REC-SVG-20010904/DTD/svg10.dtd">
<svg version="1.0" xmlns="http://www.w3.org/2000/svg"
 width="518.000000pt" height="518.000000pt" viewBox="0 0 518.000000 518.000000"
 preserveAspectRatio="xMidYMid meet">
<metadata>
Created by potrace 1.11, written by Peter Selinger 2001-2013
</metadata>
<g transform="translate(0.000000,518.000000) scale(0.100000,-0.100000)"
fill="#000000" stroke="none">
<path d="M1377 3661 c-2 -3 -3 -328 -2 -721 l1 -715 152 -3 152 -3 1 78 c0 43
1 159 2 258 l2 180 172 1 c241 2 322 14 420 60 119 56 184 159 200 313 25 254
-31 397 -196 493 -90 54 -151 61 -544 63 -197 1 -359 -1 -360 -4z m673 -267
c85 -25 121 -74 126 -172 5 -112 -24 -168 -109 -207 -44 -21 -61 -22 -215 -21
l-167 1 -3 208 -2 208 161 -2 c106 0 178 -6 209 -15z"/>
<path d="M2706 3661 c-1 -4 -2 -328 -2 -721 l1 -715 151 -3 151 -3 -1 231 c-1
127 1 237 4 245 3 8 34 44 69 80 46 47 67 62 76 55 6 -5 38 -49 71 -96 91
-132 110 -160 239 -343 l120 -170 198 0 c108 -1 197 0 197 2 0 4 -70 100 -520
716 -50 68 -90 127 -88 132 2 5 130 136 286 292 155 157 282 289 282 294 0 5
-81 9 -189 8 -221 0 -178 20 -356 -170 -110 -118 -189 -202 -335 -358 l-55
-58 0 293 0 293 -148 0 c-82 1 -149 -1 -151 -4z"/>
</g>
</svg>
